PathFileType	4	(X/Y/Z)	T1_P2_NoVision_NoMovement_3_0-734.trc
DataRate	CameraRate	NumFrames	NumMarkers	Units	OrigDataRate	OrigDataStartFrame	OrigNumFrames
60	60	7	27	m	60	642	734
Frame#	Time	RHip			RKnee			RAnkle			RBigToe			RSmallToe			RHeel			LHip			LKnee			LAnkle			LBigToe			LSmallToe			LHeel			Neck			Head			Nose			RShoulder			RElbow			RWrist			RThumb			RIndex			RPinky			LShoulder			LElbow			LWrist			LThumb			LIndex			LPinky		
		X1	Y1	Z1	X2	Y2	Z2	X3	Y3	Z3	X4	Y4	Z4	X5	Y5	Z5	X6	Y6	Z6	X7	Y7	Z7	X8	Y8	Z8	X9	Y9	Z9	X10	Y10	Z10	X11	Y11	Z11	X12	Y12	Z12	X13	Y13	Z13	X14	Y14	Z14	X15	Y15	Z15	X16	Y16	Z16	X17	Y17	Z17	X18	Y18	Z18	X19	Y19	Z19	X20	Y20	Z20	X21	Y21	Z21	X22	Y22	Z22	X23	Y23	Z23	X24	Y24	Z24	X25	Y25	Z25	X26	Y26	Z26	X27	Y27	Z27
643	10.716666666666669	468.61098884881625	3632.409593379219	529.5682944781472	867.9291066063229	3687.9472597165404	552.6254153822832	1250.8090142085796	3751.5891231542373	619.70404591379	1328.3028816398287	3632.2997856331876	568.491903085758	1310.7155330689925	3674.88967094768	521.7812203634137	1281.0308671404186	3731.849497209784	627.4827502061826	465.7318936045041	3515.18816415931	721.6777246212939	860.8759541614786	3544.2865666711996	737.7371813340978	1229.3616058583852	3596.3037569863445	721.1240563734796	1307.7912820506192	3497.9227635506336	677.8016087056243	1268.1827702807877	3440.0562398547245	702.5664811443309	1268.9568964610783	3607.8183968076314	705.9967379363923	-113.5758975761557	3547.1370086502766	629.5626403942301	-360.8986728076212	3481.856577153983	605.7587866638697	-228.85572094933906	3459.9188460183505	590.6613487565816	-27.278025691981206	3691.477251468501	503.53672232622046	211.76392840518724	3632.9889627447774	418.81969771714625	362.9882066919515	3455.0727747507863	496.643849381819	431.1989346714375	3398.992602788633	568.6387294175454	439.7769302803274	3420.605542154972	587.2143739995888	464.81383967422016	3419.0279559286346	580.3595426557471	-29.103666412821525	3493.369361086383	765.4880328316937	216.19476753388548	3403.5630876077	758.9777316108431	365.41277013825334	3391.5110953149524	602.7707476144167	417.252844933598	3375.5013144838827	500.94801831900577	443.3591795534778	3402.55304094823	508.5723676252828	467.35091312606295	3391.441325153369	565.0197151489261
644	10.733333333333333	469.7498766342846	3637.000919431094	533.1490305497515	873.764517712511	3693.231437314884	556.9169844689604	1252.0413577975576	3750.5365496600916	619.333136403367	1327.3861269592817	3627.455079525883	567.2801327292126	1310.7911438051412	3674.8515862910945	521.7731275857163	1280.3067431204463	3728.9577356955656	626.71857878639	464.892547374729	3514.889345078796	721.4370045712379	862.6721436395223	3545.5447601626593	738.1161800802971	1231.4092448950344	3596.694241788574	721.1034267897551	1307.8420406694524	3495.3632663816334	676.5362134690511	1266.326684853429	3438.8280577359524	702.2161946422746	1269.7790872303387	3609.653867835469	705.8700084815777	-113.56626083716382	3547.126598020693	629.5879836883835	-362.45744912279537	3482.17658288743	606.0058807288842	-229.73474202553822	3460.6202842877387	590.7512291308742	-27.51342043290159	3697.4949696555655	508.3686312953501	209.96565783896116	3632.3211407040817	418.55525744706955	363.26315751128715	3454.8169208302784	498.0893069855978	430.7050075875086	3399.6214513774325	569.1106436907368	438.48609009676636	3421.92204951465	587.8844121333325	464.2572662269758	3417.147372112141	579.9477823951511	-28.0366819548734	3493.4776852725045	765.4552148269162	217.91474451708754	3404.821830854682	759.4865714410718	365.5174173327148	3391.5664647884	602.7928284878716	417.2425238519951	3375.9089021622726	500.9160319479207	442.1476708339746	3402.7754789213477	508.34107657828395	467.49818423200566	3392.0783182618025	565.2252892929997
645	10.75	471.75798137301007	3643.479004300894	538.0383233109699	879.0699202073262	3698.02811617993	560.612240763686	1253.5705381459543	3749.7382373382247	619.079318497582	1325.6389828100248	3620.4776575902347	564.9979679253446	1310.7737462655223	3674.6187942153165	521.6242574488491	1278.320325723702	3723.0388203138546	625.2827978646051	463.98175227837976	3514.4923091926794	721.1864760128743	864.9850424439096	3547.100571113304	738.6046238914639	1233.2530579221882	3597.4575108717713	721.4622573390953	1307.8353622473755	3491.68089400307	674.1210513805216	1264.9683235963375	3438.1957706258704	702.2458965290571	1270.0328386621895	3609.218222496848	703.546331572252	-113.56540691173733	3547.1197630185143	629.6114569273403	-363.8420401708594	3483.349591714123	606.6653192063822	-229.67365493566174	3464.1953209931976	593.4134077827637	-28.026946100027534	3702.061145025786	512.0849306334144	208.52383051147524	3631.8317736469935	418.36241203063696	362.9976635179223	3454.6778348406697	498.6309839853955	431.4223680149232	3403.1189512695155	571.071473997694	437.5798278277408	3422.955646383586	588.4082598401408	463.7257244849113	3414.4505022663107	578.392376051441	-28.019329799794324	3493.6644055949746	765.659161552211	219.31591934296262	3405.719433874554	759.8733425669279	365.5458368380244	3391.6386533571954	602.8347904648436	417.5346763039184	3378.206541914383	501.5362769892931	440.8473744501713	3402.3068383631125	508.0875223997207	467.5390215462101	3392.4183488481144	565.3534576368435
646	10.766666666666667	474.0410149010934	3648.6171025609947	541.6600564711932	882.635380202925	3700.886826677823	562.330847206517	1253.9950119821647	3748.8945644073283	618.8456644433497	1322.9237235040619	3614.153583827402	562.2058950648404	1310.5760401027837	3674.1800027601766	521.3744722284605	1275.6819973282527	3715.5431698046914	623.4483855226745	463.11640610503827	3513.974719286266	721.0791763673416	867.7722262701701	3548.7889386173615	739.2226658230654	1233.8507783241864	3597.609498909333	721.7617461923469	1309.043768587895	3490.82850953226	672.3439116839459	1264.4798610796922	3438.056690871089	702.3271978419665	1270.3792721335	3607.5103735191256	701.2131093403698	-113.57515548939986	3547.134657973103	629.6351103451365	-364.5230194810882	3484.9503358890074	607.4870788714974	-228.95448219273436	3467.517593963829	596.2271155521323	-28.238574667072058	3703.893055474384	513.589635887915	208.03615733374664	3631.7194072343073	418.32550794813085	362.82705011873435	3454.6896086833444	498.658058290855	431.647581344523	3410.094739371088	574.9544302362872	437.20967386056554	3423.364807765466	588.6067261062622	463.9897118232343	3413.5439945870185	577.5850515661617	-29.007597813806363	3494.7333969963584	766.8410374806767	220.21966273641647	3405.809988168577	759.8971157589267	365.53135657375464	3391.698626592661	602.8735800639661	418.2897123532196	3383.579796638183	502.86530389617485	440.1960924193485	3402.078755153633	508.1485971619791	467.47403961853075	3392.3515804022713	565.34021231218
647	10.783333333333331	475.33005795597506	3649.1482261682063	541.7236692932032	884.3023730217863	3700.885051363152	561.5307642123242	1252.358034224088	3747.2318240647473	618.3885942337697	1319.9711922276285	3611.2217684486377	560.0969288697316	1310.2587706801953	3673.742687579217	521.1170949274934	1273.612258951465	3709.886336340196	622.0474468604482	462.60317711559406	3513.407373062982	721.3659124611679	869.9921814154613	3550.0584722478725	739.759684289016	1233.5330614226948	3597.3575021946963	721.8987835078863	1311.6624036952398	3495.04121357961	672.8848300882959	1264.503642344073	3438.177563831896	702.3982985427297	1270.8801414636214	3606.2071925668506	700.72174721017	-113.58554384459366	3547.1773205196705	629.6574855098851	-364.37754825030333	3485.9548078505363	607.9587586226818	-228.00087156813834	3466.3099706330745	595.6323403329071	-27.851638900813988	3704.0134453657156	513.6607819231402	208.61974118789374	3631.99685795823	418.45176650847196	363.6007039465071	3455.0692634263005	498.74982638471016	429.48159196129535	3417.5828572263586	579.0516668892917	437.1214265928777	3423.4799064341487	588.6926095285841	465.6837126970479	3416.0857338882424	579.0867852112367	-30.01200711673379	3497.095015354585	769.2342868466087	220.83999432971132	3405.342144949088	759.6383005448711	365.50539680972884	3391.724385943884	602.8834967653372	419.2574687153373	3390.6252105015487	504.223102782274	440.31661080322306	3402.711368843514	508.5195279220395	467.35041768050917	3391.9514280354497	565.2031843869506
648	10.8	474.6642534981578	3644.1438413309716	537.8570362019651	883.6745838691825	3697.2435318349753	558.068085551889	1249.724992986114	3745.1107697703474	617.8869145348239	1317.5786305823503	3611.1928957150913	558.8603829568765	1309.9591423413237	3673.457802426519	520.9217231874386	1272.7122548838793	3707.644718759545	621.4902510770344	462.5676979742518	3512.9905873991192	722.0011005737839	870.6293656713474	3550.497827353691	739.9671530084541	1233.3960064094822	3597.51315625617	722.0655143901561	1314.0538797513764	3501.0804254036707	675.2506133620329	1264.5432187374224	3438.2781576833972	702.4301303194407	1270.6532323913336	3605.345221123909	701.8167162104645	-113.58547452960805	3547.2315210584975	629.6726611937289	-364.10562967031626	3485.845734696944	607.881963105874	-226.93600624038137	3460.937445700942	591.6754369455718	-27.6053854685713	3703.5641137951834	513.2933317084317	210.1376333266008	3632.5608388180954	418.7020980049608	365.09588504806504	3455.7080667910263	499.0474847220534	425.74769811098236	3422.2488977329504	581.0343105381667	437.0345355075908	3423.6819703091082	588.8874269856917	468.5183903001537	3421.923442784018	583.1513291771968	-30.436781620612564	3499.490905694077	771.5719561476127	221.05254838636648	3405.027285423327	759.4611370857833	365.4740380968674	3391.7200846190085	602.8615884595253	419.95947222238453	3396.132483297438	504.7487538569758	441.27568271015673	3404.84980969795	509.0972713689966	467.2067186993103	3391.4022678277156	565.0130280157088
649	10.816666666666666	472.8362799374357	3636.9245044081117	532.5136991123372	881.3515986220962	3691.420134756058	553.2685510759447	1248.701651585369	3744.2356967181418	617.831591541321	1316.1761356503966	3611.216399123595	557.260094096306	1309.9339535193853	3673.323120510224	520.8214943712082	1272.7663224324017	3707.6183931421247	621.4695993146188	463.07822346730404	3513.1461102911753	722.4599786585553	870.0727130949033	3550.3984523660197	739.8866565460721	1233.7337185951376	3598.4217998767103	722.4317549060036	1314.3907264718666	3503.5877083089817	676.8554433430347	1264.4196249672582	3438.194539644081	702.3476825419434	1269.8529212414205	3604.6525099187793	703.1605838073813	-113.57513472465743	3547.273942007002	629.6819906680762	-364.4870216672624	3485.2214459046336	607.608262102819	-226.00684822223317	3455.710200929851	587.6718777409976	-28.359871681196022	3702.981210880072	512.931864118466	211.88056758738776	3633.1250765086197	418.9592592620361	366.3570605412052	3456.214608894811	499.3667693173888	422.88147669296995	3423.93476239029	580.5184563301904	436.897536483691	3423.9725776924047	589.1382948697103	471.0590763535659	3428.182268304885	587.8701410336932	-30.465662092214767	3500.22225092585	772.2910010207615	220.7625721229449	3405.192567045347	759.5328410252245	365.4483206886224	3391.706948011265	602.8242738215306	420.1998805497101	3398.4379300936735	504.4265919801233	442.92118812952697	3408.1771930200084	509.4610586301261	467.2077778490492	3391.4700588396645	565.0030934680891
